# xmcd CD database file
#
# Track frame offsets:
#	187
#	16575
#	38480
#	50637
#	68467
#	81355
#	104452
#	119240
#	148435
#
# Disc length: 2271 seconds
#
# Revision: 0
# Processed by: cddbd v1.4PL0 Copyright (c) Steve Scherf et al.
# Submitted via: CDex 1.50beta10
#
DISCID=7b08dd09
DTITLE=Jimmy Smith - Livin' it up
DYEAR=1968
DGENRE=Jazz
TTITLE0=Mission Impossible
TTITLE1=Refractions
TTITLE2=The gentle rain
TTITLE3=Burning spear
TTITLE4=Go away little girl
TTITLE5=Livin' it up
TTITLE6=This nearly was mine
TTITLE7=Big boss man
TTITLE8=Valley of the dolls
EXTD=YEAR: 1968
EXTT0=
EXTT1=
EXTT2=
EXTT3=
EXTT4=
EXTT5=
EXTT6=
EXTT7=
EXTT8=
PLAYORDER=
